<svg width="78" height="78" viewBox="0 0 78 78" fill="none" xmlns="http://www.w3.org/2000/svg">
<circle cx="39" cy="39" r="39" fill="#00970F"/>
<path d="M31.6216 61.9718C31.6216 62.398 31.4932 62.8147 31.2527 63.169C31.0121 63.5234 30.6702 63.7996 30.2702 63.9627C29.8702 64.1258 29.43 64.1685 29.0053 64.0853C28.5807 64.0022 28.1906 63.797 27.8844 63.4956C27.5783 63.1942 27.3698 62.8102 27.2853 62.3922C27.2008 61.9742 27.2442 61.5409 27.4099 61.1472C27.5756 60.7534 27.8562 60.4169 28.2162 60.1801C28.5762 59.9433 28.9994 59.8169 29.4324 59.8169C30.013 59.8169 30.5699 60.0439 30.9804 60.4481C31.391 60.8522 31.6216 61.4003 31.6216 61.9718Z" stroke="#F4F4F4" stroke-width="3" stroke-linecap="round" stroke-linejoin="round"/>
<path d="M55.7027 61.9718C55.7027 62.398 55.5743 62.8147 55.3337 63.169C55.0932 63.5234 54.7513 63.7996 54.3513 63.9627C53.9512 64.1258 53.5111 64.1685 53.0864 64.0853C52.6618 64.0022 52.2717 63.797 51.9655 63.4956C51.6593 63.1942 51.4508 62.8102 51.3664 62.3922C51.2819 61.9742 51.3253 61.5409 51.491 61.1472C51.6566 60.7534 51.9372 60.4169 52.2973 60.1801C52.6573 59.9433 53.0805 59.8169 53.5135 59.8169C54.0941 59.8169 54.6509 60.0439 55.0615 60.4481C55.472 60.8522 55.7027 61.4003 55.7027 61.9718Z" stroke="#F4F4F4" stroke-width="3" stroke-linecap="round" stroke-linejoin="round"/>
<path d="M11.9189 18.8733H20.6757L26.5427 47.7278C26.7429 48.7199 27.2912 49.6111 28.0916 50.2454C28.8921 50.8797 29.8937 51.2166 30.9211 51.1972H52.2C53.2274 51.2166 54.229 50.8797 55.0294 50.2454C55.8299 49.6111 56.3782 48.7199 56.5784 47.7278L60.0811 29.6479H22.8649" stroke="#F4F4F4" stroke-width="3" stroke-linecap="round" stroke-linejoin="round"/>
</svg>
