<svg width="72" height="73" viewBox="0 0 72 73" fill="none" xmlns="http://www.w3.org/2000/svg">
<path d="M0 18.25C0 15.8299 0.948212 13.5089 2.63604 11.7977C4.32387 10.0864 6.61305 9.125 9 9.125H63C65.3869 9.125 67.6761 10.0864 69.364 11.7977C71.0518 13.5089 72 15.8299 72 18.25V54.75C72 57.1701 71.0518 59.4911 69.364 61.2023C67.6761 62.9136 65.3869 63.875 63 63.875H9C6.61305 63.875 4.32387 62.9136 2.63604 61.2023C0.948212 59.4911 0 57.1701 0 54.75V18.25ZM9 13.6875C7.80653 13.6875 6.66193 14.1682 5.81802 15.0238C4.97411 15.8795 4.5 17.0399 4.5 18.25V22.8125H67.5V18.25C67.5 17.0399 67.0259 15.8795 66.182 15.0238C65.3381 14.1682 64.1935 13.6875 63 13.6875H9ZM67.5 31.9375H4.5V54.75C4.5 55.9601 4.97411 57.1205 5.81802 57.9762C6.66193 58.8318 7.80653 59.3125 9 59.3125H63C64.1935 59.3125 65.3381 58.8318 66.182 57.9762C67.0259 57.1205 67.5 55.9601 67.5 54.75V31.9375Z" fill="#202020"/>
<path d="M9 45.625C9 44.4149 9.47411 43.2545 10.318 42.3988C11.1619 41.5432 12.3065 41.0625 13.5 41.0625H18C19.1935 41.0625 20.3381 41.5432 21.182 42.3988C22.0259 43.2545 22.5 44.4149 22.5 45.625V50.1875C22.5 51.3976 22.0259 52.558 21.182 53.4137C20.3381 54.2693 19.1935 54.75 18 54.75H13.5C12.3065 54.75 11.1619 54.2693 10.318 53.4137C9.47411 52.558 9 51.3976 9 50.1875V45.625Z" fill="#202020"/>
</svg>
