<svg width="54" height="51" viewBox="0 0 54 51" fill="none" xmlns="http://www.w3.org/2000/svg">
<path d="M22.6215 45.9718C22.6215 46.398 22.4932 46.8147 22.2526 47.169C22.012 47.5234 21.6701 47.7996 21.2701 47.9627C20.8701 48.1258 20.4299 48.1685 20.0053 48.0853C19.5806 48.0022 19.1905 47.797 18.8844 47.4956C18.5782 47.1942 18.3697 46.8102 18.2852 46.3922C18.2008 45.9742 18.2441 45.5409 18.4098 45.1472C18.5755 44.7534 18.8561 44.4169 19.2161 44.1801C19.5761 43.9433 19.9994 43.8169 20.4324 43.8169C21.013 43.8169 21.5698 44.0439 21.9803 44.4481C22.3909 44.8522 22.6215 45.4003 22.6215 45.9718Z" stroke="#F4F4F4" stroke-width="3" stroke-linecap="round" stroke-linejoin="round"/>
<path d="M46.7026 45.9718C46.7026 46.398 46.5742 46.8147 46.3337 47.169C46.0931 47.5234 45.7512 47.7996 45.3512 47.9627C44.9512 48.1258 44.511 48.1685 44.0863 48.0853C43.6617 48.0022 43.2716 47.797 42.9654 47.4956C42.6593 47.1942 42.4508 46.8102 42.3663 46.3922C42.2818 45.9742 42.3252 45.5409 42.4909 45.1472C42.6566 44.7534 42.9372 44.4169 43.2972 44.1801C43.6572 43.9433 44.0804 43.8169 44.5134 43.8169C45.094 43.8169 45.6508 44.0439 46.0614 44.4481C46.472 44.8522 46.7026 45.4003 46.7026 45.9718Z" stroke="#F4F4F4" stroke-width="3" stroke-linecap="round" stroke-linejoin="round"/>
<path d="M2.91895 2.87323H11.6757L17.5427 31.7277C17.7429 32.7199 18.2912 33.6111 19.0917 34.2453C19.8921 34.8796 20.8937 35.2166 21.9211 35.1972H43.2C44.2274 35.2166 45.229 34.8796 46.0295 34.2453C46.8299 33.6111 47.3782 32.7199 47.5784 31.7277L51.0811 13.6479H13.8649" stroke="#F4F4F4" stroke-width="3" stroke-linecap="round" stroke-linejoin="round"/>
</svg>
