<svg width="127" height="140" viewBox="0 0 127 140" fill="none" xmlns="http://www.w3.org/2000/svg">
<rect x="55" y="80" width="22" height="27" fill="#0085CC"/>
<path d="M87.5034 71.7145C87.4135 70.5225 87.1661 69.4767 86.7612 68.5771C86.3564 67.6549 85.7829 66.879 85.0407 66.2493C84.2985 65.5971 83.3764 65.1135 82.2744 64.7986C81.1948 64.4613 79.9241 64.2926 78.4622 64.2926C75.3136 64.2926 72.446 65.046 69.8596 66.5529C67.2732 68.0598 65.1029 70.2301 63.3486 73.0639C61.6168 75.8977 60.4248 79.3163 59.7726 83.3196C59.0979 87.3679 59.0417 90.8314 59.6039 93.7102C60.1662 96.589 61.3807 98.7931 63.2474 100.322C65.1366 101.852 67.6893 102.616 70.9054 102.616C73.7842 102.616 76.2694 102.2 78.361 101.368C80.4526 100.536 82.1282 99.3553 83.3876 97.826C84.6471 96.2966 85.4343 94.4974 85.7492 92.4283L88.9878 92.7656H73.1994L75.3585 79.4062H105.991L104.439 88.9872C103.404 95.2846 101.178 100.671 97.7591 105.147C94.363 109.6 90.1348 113.018 85.0744 115.402C80.0141 117.764 74.4589 118.945 68.409 118.945C61.7068 118.945 56.0504 117.516 51.4399 114.66C46.8293 111.804 43.5344 107.733 41.5553 102.448C39.5986 97.1625 39.2162 90.8764 40.4082 83.5895C41.3529 77.8769 43.0621 72.8165 45.5361 68.4084C48.0325 64.0002 51.08 60.2781 54.6785 57.2418C58.277 54.1831 62.2466 51.8778 66.5872 50.326C70.9279 48.7517 75.426 47.9645 80.0815 47.9645C84.1523 47.9645 87.852 48.5492 91.1806 49.7188C94.5092 50.8658 97.3543 52.5076 99.7158 54.6442C102.077 56.7583 103.843 59.266 105.012 62.1673C106.204 65.0685 106.688 68.2509 106.463 71.7145H87.5034Z" fill="#0085CC"/>
<path d="M74.8726 54.9702C74.7637 53.5272 74.4642 52.2612 73.9741 51.1722C73.4841 50.056 72.7898 49.1167 71.8914 48.3544C70.9929 47.5649 69.8767 46.9795 68.5427 46.5984C67.2358 46.19 65.6976 45.9858 63.928 45.9858C60.1164 45.9858 56.6452 46.8978 53.5143 48.7219C50.3833 50.546 47.7561 53.1733 45.6325 56.6037C43.5361 60.0341 42.0932 64.1723 41.3037 69.0185C40.4869 73.919 40.4188 78.1117 41.0995 81.5966C41.7801 85.0814 43.2503 87.7495 45.51 89.6009C47.7969 91.4522 50.887 92.3778 54.7802 92.3778C58.2651 92.3778 61.2735 91.8742 63.8054 90.8668C66.3374 89.8595 68.3657 88.4302 69.8903 86.5788C71.4149 84.7275 72.3678 82.5495 72.749 80.0447L76.6694 80.4531H57.5572L60.1709 64.2812H97.2518L95.3733 75.8793C94.1209 83.5024 91.4256 90.0228 87.2873 95.4407C83.1763 100.831 78.0579 104.97 71.9322 107.855C65.8065 110.714 59.0818 112.143 51.7582 112.143C43.6451 112.143 36.7979 110.415 31.2167 106.957C25.6355 103.499 21.6469 98.5716 19.2511 92.1737C16.8825 85.7757 16.4197 78.1662 17.8626 69.3452C19.0061 62.4299 21.0752 56.3042 24.07 50.968C27.092 45.6319 30.7811 41.1261 35.1371 37.4506C39.4932 33.748 44.2985 30.9574 49.553 29.0788C54.8075 27.1731 60.2525 26.2202 65.8882 26.2202C70.816 26.2202 75.2946 26.928 79.3239 28.3438C83.3533 29.7322 86.7973 31.7197 89.6559 34.3061C92.5146 36.8653 94.6518 39.9009 96.0675 43.413C97.5105 46.9251 98.0958 50.7775 97.8236 54.9702H74.8726Z" fill="#002987"/>
</svg>
