<svg width="75" height="75" viewBox="0 0 75 75" fill="none" xmlns="http://www.w3.org/2000/svg">
<path d="M37.5 37.5C46.1294 37.5 53.125 30.5044 53.125 21.875C53.125 13.2456 46.1294 6.25 37.5 6.25C28.8706 6.25 21.875 13.2456 21.875 21.875C21.875 30.5044 28.8706 37.5 37.5 37.5Z" stroke="#F4F4F4" stroke-width="4"/>
<path d="M53.1252 43.75H54.2252C56.5098 43.7506 58.7156 44.5855 60.4281 46.0978C62.1405 47.61 63.2419 49.6955 63.5252 51.9625L64.7471 61.725C64.857 62.6045 64.7786 63.4972 64.5171 64.3441C64.2555 65.1909 63.8169 65.9725 63.2303 66.6369C62.6436 67.3012 61.9224 67.8332 61.1144 68.1976C60.3065 68.5619 59.4302 68.7502 58.5439 68.75H16.4564C15.5701 68.7502 14.6939 68.5619 13.886 68.1976C13.078 67.8332 12.3568 67.3012 11.7701 66.6369C11.1835 65.9725 10.7448 65.1909 10.4833 64.3441C10.2218 63.4972 10.1434 62.6045 10.2533 61.725L11.4721 51.9625C11.7555 49.6944 12.8577 47.6081 14.5715 46.0957C16.2853 44.5833 18.4926 43.7491 20.7783 43.75H21.8752" stroke="#F4F4F4" stroke-width="4" stroke-linecap="round" stroke-linejoin="round"/>
</svg>
