<svg xmlns="http://www.w3.org/2000/svg" width="34.524" height="34.524" viewBox="0 0 34.524 34.524">
  <path id="Icon_simple-instagram" data-name="Icon simple-instagram" d="M17.262,0c-4.689,0-5.275.022-7.116.1a12.728,12.728,0,0,0-4.19.8A8.453,8.453,0,0,0,2.9,2.9,8.422,8.422,0,0,0,.906,5.955a12.691,12.691,0,0,0-.8,4.19C.017,11.987,0,12.572,0,17.262s.022,5.275.1,7.116a12.736,12.736,0,0,0,.8,4.19A8.465,8.465,0,0,0,2.9,31.627a8.441,8.441,0,0,0,3.058,1.991,12.744,12.744,0,0,0,4.19.8c1.841.086,2.427.1,7.116.1s5.275-.022,7.116-.1a12.774,12.774,0,0,0,4.19-.8,8.822,8.822,0,0,0,5.049-5.049,12.736,12.736,0,0,0,.8-4.19c.086-1.841.1-2.427.1-7.116s-.022-5.275-.1-7.116a12.766,12.766,0,0,0-.8-4.19A8.472,8.472,0,0,0,31.627,2.9,8.411,8.411,0,0,0,28.568.906a12.7,12.7,0,0,0-4.19-.8C22.537.017,21.951,0,17.262,0Zm0,3.107c4.607,0,5.157.023,6.977.1a9.511,9.511,0,0,1,3.2.6,5.681,5.681,0,0,1,3.277,3.275,9.531,9.531,0,0,1,.594,3.2c.082,1.821.1,2.368.1,6.977s-.022,5.157-.106,6.977a9.714,9.714,0,0,1-.606,3.2,5.481,5.481,0,0,1-1.293,1.988,5.385,5.385,0,0,1-1.985,1.289,9.6,9.6,0,0,1-3.215.594c-1.833.082-2.372.1-6.99.1s-5.158-.022-6.99-.106A9.788,9.788,0,0,1,7.013,30.7a5.346,5.346,0,0,1-1.984-1.293,5.241,5.241,0,0,1-1.295-1.985,9.8,9.8,0,0,1-.6-3.215c-.065-1.812-.088-2.372-.088-6.968s.023-5.158.088-6.992a9.785,9.785,0,0,1,.6-3.214A5.117,5.117,0,0,1,5.029,5.048,5.106,5.106,0,0,1,7.013,3.756a9.554,9.554,0,0,1,3.195-.606c1.834-.065,2.373-.086,6.99-.086l.065.043Zm0,5.291a8.864,8.864,0,1,0,8.864,8.864A8.863,8.863,0,0,0,17.262,8.4Zm0,14.618a5.754,5.754,0,1,1,5.754-5.754A5.752,5.752,0,0,1,17.262,23.016ZM28.548,8.048a2.071,2.071,0,1,1-2.071-2.07A2.073,2.073,0,0,1,28.548,8.048Z" fill="#dd6f00"/>
</svg>
