<svg id="Component_1_1" data-name="Component 1 – 1" xmlns="http://www.w3.org/2000/svg" width="35" height="35" viewBox="0 0 35 35">
  <circle id="Ellipse_1" data-name="Ellipse 1" cx="17.5" cy="17.5" r="17.5" fill="#dd6f00"/>
  <path id="Icon_metro-twitter" data-name="Icon metro-twitter" d="M26.123,7.083a9.661,9.661,0,0,1-2.775.761,4.847,4.847,0,0,0,2.125-2.673A9.673,9.673,0,0,1,22.4,6.343,4.837,4.837,0,0,0,14.17,10.75,13.718,13.718,0,0,1,4.21,5.7a4.837,4.837,0,0,0,1.5,6.451,4.812,4.812,0,0,1-2.189-.6c0,.02,0,.04,0,.061a4.835,4.835,0,0,0,3.876,4.738,4.84,4.84,0,0,1-2.182.083,4.837,4.837,0,0,0,4.514,3.356,9.7,9.7,0,0,1-6,2.069,9.8,9.8,0,0,1-1.153-.068,13.677,13.677,0,0,0,7.407,2.171A13.654,13.654,0,0,0,23.726,10.209q0-.314-.014-.625a9.816,9.816,0,0,0,2.411-2.5Z" transform="translate(3.639 4.077)" fill="#f4f4f4"/>
</svg>
